# xmcd
# 
# Track frame offsets:
#     150
#     16551
#     28926
#     50775
#     62625
#     76208
#     87745
#     105841
#     121916
#     134353
# 
# Disc length: 2019
# 
# Revision: 1
# Processed by: cddbd v1.5.2PL0 Copyright (c) Steve Scherf et al.
# Submitted via: fre:ac v1.0.27
# 
DISCID=7a07e10a
DTITLE=Joe Price - Rain or Shine
DYEAR=2009
DGENRE=Blues
TTITLE0=Hornet's Nest
TTITLE1=Joe's Guitar Stomp
TTITLE2=Too Little Too Late
TTITLE3=Nellie Bell
TTITLE4=Steel Guitar
TTITLE5=Lu Lu
TTITLE6=Last Stop Now
TTITLE7=Blues on 12
TTITLE8=Beer Tent Boogie Woogie
TTITLE9=Rock Slide
EXTD=
EXTT0=
EXTT1=
EXTT2=
EXTT3=
EXTT4=
EXTT5=
EXTT6=
EXTT7=
EXTT8=
EXTT9=
PLAYORDER=
